<svg width="140" height="32" fill="none" xmlns="http://www.w3.org/2000/svg"><path d="M19.255 1.683V3.22H31.34v3.585h-9.053c3.214 3.145 7.909 4.903 11.346 5.708L30.159 16.1c-6.418-2.824-10.904-7.793-10.904-7.793v7.21h-4.25V8.488c-1.994 2.159-3.546 3.513-6.061 5.233l2.512 1.535v1.683h4.543v3.803h-4.543c1.107 1.062 2.44 2.269 4.581 3.55l-2.772 2.927c-1.035-.953-1.145-1.063-1.813-2.121v6.514H7.275v-6.295c-1.073 1.867-2.107 3.293-3.807 5.085L0 27.774c1.7-1.206 3.992-3.112 6.281-7.025h-4.99v-3.804h5.99v-2.12c-.554.29-1.442.804-3.141 1.61L.96 13.32c1.775-.624 3.916-1.354 6.726-3.036 2.512-1.535 3.362-2.416 4.325-3.475H3.029V3.221h11.977V0l4.249 1.683zm6.874 13.573v1.573h6.799v3.807h-6.024c2.549 3.512 4.88 5.16 6.798 6.367l-3.176 3.074c-1.957-1.72-3.143-3.074-4.397-4.976v6.514h-4.215v-7.391c-1.367 2.159-3.067 4.355-6.21 6.987l-3.18-2.707c4.473-3.002 6.543-5.963 7.762-7.868h-3.399v-3.807h5.027v-3.331l4.215 1.755v.003zm37.204 9.773c-2.608.64-6.048 1.374-9.51 1.374-3.46 0-5.393-1.11-5.393-2.971 0-1.86 2.022-3.28 3.547-4.218 1.655-1.049 6.161-3.406 11.387-4.815l.312-.086-1.347-4.4-.325.151c-2.814 1.313-3.773 1.758-5.514 2.567l-2.118.983c-.593-.37-1.144-.822-1.525-1.84-.791-2.18-.846-5.318-.877-7.004l-.01-.528-4.637.682.055.315c.97 5.74 1.148 6.775 1.604 7.84.28.652.788 1.601 1.627 2.564-3.447 2.039-6.243 4.088-6.243 7.875 0 2.371 1.244 4.437 3.334 5.527 1.556.798 3.194 1.261 6.967 1.261 3.773 0 6.853-.452 8.67-.723l.387-.058v-4.599l-.387.096-.004.007zm11.936 4.955l-.69-3.896c.813-.147 1.036-.182 1.738-.329v-11.71l3.105 1.245v9.951c.37-.072.74-.147 1.107-.22v-12.62h-4.03V.805h11.308v11.6H84.26v3.221h3.328v3.842H84.26v4.794c1.258-.258 1.923-.401 3.03-.696v3.512c-1.775.549-3.917 1.097-4.582 1.282 0 0-5.137 1.227-7.443 1.628l.004-.004zM84.41 4.246h-4.03v4.646h4.03V4.247zm15.633 4.026c.593.257 1.477.658 2.587 1.282l-.555.953h4.287v17.198c0 1.978-.812 3.66-2.957 3.66h-2.512l-1.995-3.732v2.965h-3.66v-6.11h-3.142v6.696h-3.769v-20.68h7.391a23.862 23.862 0 00-5.506-2.341l1.884-2.965c1.628.477 2.773.915 4.212 1.464.887-.806 1.514-1.392 2.107-2.197h-9.533V.733h16.263l1.81 2.087c-2.402 2.05-5.175 4.17-6.912 5.452zm-4.804 5.634h-3.143v2.268h3.143v-2.268zm0 5.27h-3.143v2.378h3.143v-2.378zm7.134-5.27H98.9v2.268h3.474v-2.268zm0 5.27H98.9v2.378h3.474v-2.378zm0 5.305H98.9v2.635c1.034.257 1.737.4 2.511.4.888 0 .96-.804.96-1.096v-1.94h.003zm25.352 5.999c-4.619 0-6.983-2.306-6.983-5.013 0-2.087 1.809-4.866 5.431-4.866 3.845 0 6.247 3.002 7.282 4.28.812-.73 2.44-2.268 2.44-4.866 0-3.622-3.585-4.794-5.987-4.794-1.59 0-3.327.439-4.211.915-2.293 1.207-5.545 4.465-7.615 6.549l-3.104-3.221c3.845-2.855 7.761-6.11 13.676-13.21-2.217.51-4.249.877-8.649.914l-.85-4.098c.888.072 2.995.22 4.14.22 1.404 0 7.686-.477 11.198-1.83l1.923 2.964c-2.218 1.83-2.845 2.415-8.204 7.83 1.22-.185 3.029-.22 3.584-.22 5.027 0 8.204 4.061 8.204 8.088 0 6.072-5.767 10.355-12.271 10.355l-.004.004zm-1.401-6.66c-1.515 0-1.847 1.061-1.847 1.534 0 1.282 1.699 1.645 3.029 1.645 1.182 0 1.994-.22 2.512-.329-.48-.84-1.59-2.854-3.694-2.854" fill="#F8F6F0"/></svg>